<?xml version="1.0" standalone="no"?>
<!DOCTYPE svg PUBLIC "-//W3C//DTD SVG 20010904//EN"
 "http://www.w3.org/TR/2001/REC-SVG-20010904/DTD/svg10.dtd">
<svg version="1.0" xmlns="http://www.w3.org/2000/svg"
 width="308.000000pt" height="308.000000pt" viewBox="0 0 308.000000 308.000000"
 preserveAspectRatio="xMidYMid meet">
<metadata>
Created by potrace 1.16, written by Peter Selinger 2001-2019
</metadata>
<g transform="translate(0.000000,308.000000) scale(0.100000,-0.100000)"
fill="#000000" stroke="none">
<path d="M44 3029 c-4 -30 -15 -60 -25 -70 -24 -24 -24 -47 -2 -45 15 1 18 -9
21 -66 2 -57 0 -70 -18 -88 -11 -11 -20 -26 -20 -32 0 -10 2 -10 8 -1 5 7 13
9 21 3 18 -11 9 -166 -13 -229 -14 -38 -16 -139 -16 -796 l0 -752 198 -6 c206
-6 365 -26 551 -70 111 -27 138 -44 120 -78 -17 -32 -57 -33 -238 -4 -140 22
-222 29 -403 33 l-228 5 0 -300 c0 -248 3 -303 15 -319 19 -25 19 -48 0 -64
-8 -7 -15 -22 -15 -34 0 -20 1 -19 25 7 14 15 30 27 34 27 11 0 71 -67 71 -79
0 -5 -17 -23 -37 -40 -37 -30 -38 -30 -12 -31 14 0 34 9 44 20 23 25 37 25 60
0 18 -20 31 -20 1360 -20 1168 0 1344 2 1348 15 4 8 24 27 47 44 22 16 63 63
90 105 l50 77 0 294 0 295 -179 0 c-201 0 -321 -10 -526 -45 -146 -25 -165
-23 -186 16 -25 48 25 67 312 114 113 19 210 27 367 32 l212 6 0 752 c0 660
-2 757 -16 790 -10 26 -16 75 -17 157 -2 104 0 120 16 129 21 12 24 51 3 43
-20 -8 -36 26 -36 74 0 28 7 45 25 62 28 26 37 72 10 50 -20 -17 -32 -4 -37
35 l-3 30 -97 3 -98 3 -1 -148 c-2 -165 -7 -206 -29 -211 -8 -1 -46 23 -85 54
-123 98 -322 214 -473 275 l-73 29 -630 0 -630 0 -135 -65 c-159 -75 -329
-177 -404 -241 -74 -63 -84 -67 -106 -43 -14 15 -19 46 -26 142 -4 67 -5 141
-2 165 l6 42 -96 0 -95 0 -7 -51z m886 -1065 c36 -17 90 -54 121 -82 36 -33
66 -52 81 -52 30 0 48 -19 83 -88 61 -123 85 -350 51 -478 -22 -85 -67 -173
-104 -206 l-36 -31 -105 6 c-175 10 -273 45 -404 143 -173 130 -284 323 -295
511 -4 67 -1 88 13 109 13 20 22 24 41 20 21 -6 36 3 87 52 113 107 177 133
312 129 76 -2 100 -7 155 -33z m1530 -1 c36 -17 94 -57 129 -89 43 -39 72 -58
90 -59 37 0 61 -52 61 -130 0 -151 -87 -324 -231 -460 -83 -79 -189 -150 -261
-175 -70 -24 -182 -27 -254 -5 -63 18 -133 72 -163 124 -30 55 -51 159 -51
262 0 113 12 172 56 275 33 76 42 89 88 118 28 19 65 48 81 66 32 34 103 74
170 97 25 8 75 12 130 10 76 -2 100 -7 155 -34z m-852 -1079 c13 -8 28 -27 35
-41 11 -24 8 -28 -36 -65 -42 -36 -47 -44 -47 -82 0 -74 -32 -89 -43 -21 -3
21 0 53 9 77 8 23 12 48 10 55 -8 19 -40 16 -61 -7 -24 -27 -41 -25 -61 6 -16
24 -16 27 3 52 37 50 134 64 191 26z m-310 -311 c5 -31 -22 -42 -164 -63 -68
-11 -152 -26 -187 -34 -204 -47 -442 -150 -586 -254 -68 -49 -88 -59 -103 -51
-48 26 -11 72 143 174 217 146 463 228 729 245 162 10 164 9 168 -17z m892
-22 c200 -53 311 -102 471 -207 151 -99 184 -138 139 -166 -11 -8 -40 7 -115
57 -225 152 -489 247 -760 276 -136 14 -180 34 -152 67 9 12 39 14 157 9 119
-4 166 -10 260 -36z"/>
<path d="M636 1860 c-54 -21 -118 -77 -144 -125 -10 -20 -16 -56 -16 -105 -1
-68 3 -84 37 -154 96 -193 290 -318 471 -304 79 7 124 30 142 73 20 48 19 246
-2 335 -30 132 -136 249 -258 285 -69 21 -170 18 -230 -5z m248 -513 c21 -16
18 -45 -6 -61 -13 -8 -22 -6 -37 8 -45 41 -5 88 43 53z"/>
<path d="M2190 1865 c-106 -34 -200 -130 -233 -240 -16 -56 -16 -340 1 -356
10 -11 23 -2 66 44 60 63 96 78 135 56 38 -21 38 -63 2 -132 -36 -69 -28 -80
46 -61 92 24 154 63 244 153 103 104 132 158 137 256 7 131 -35 212 -134 261
-69 34 -191 43 -264 19z"/>
<path d="M444 3065 c11 -8 32 -15 46 -15 14 0 35 7 46 15 17 13 13 14 -46 14
-59 0 -63 -1 -46 -14z"/>
<path d="M2540 3070 c20 -13 57 -13 65 0 4 6 -11 10 -37 10 -31 0 -39 -3 -28
-10z"/>
</g>
</svg>
